<svg width="30" height="30" viewBox="0 0 30 30" fill="none" xmlns="http://www.w3.org/2000/svg">
<path d="M26.8074 25.6357H3.18165C2.5289 25.6357 2.00006 26.1648 2.00006 26.8185C2.00006 27.471 2.5289 28.0001 3.18165 28.0001H26.8068C27.4596 28.0001 27.9884 27.471 27.9884 26.8185C27.9879 26.1648 27.459 25.6357 26.8074 25.6357Z" fill="#333333"/>
<path d="M4.65803 22.5624C4.00528 22.5624 3.47644 23.0915 3.47644 23.7446C3.47644 24.3976 4.00528 24.9273 4.65803 24.9273H25.3303C25.9831 24.9273 26.5119 24.3976 26.5119 23.7446C26.5119 23.0915 25.9831 22.5624 25.3303 22.5624H25.0355V11.9252H25.3303C25.6573 11.9252 25.9206 11.6606 25.9206 11.3347C25.9206 11.0087 25.6562 10.7441 25.3303 10.7441H4.65803C4.33166 10.7441 4.06779 11.0087 4.06779 11.3347C4.06779 11.6606 4.33221 11.9252 4.65803 11.9252H4.95343V22.5618H4.65803V22.5624ZM22.6723 11.9252V22.5618H19.1286V11.9252H22.6723ZM16.7655 11.9252V22.5618H13.2218V11.9252H16.7655ZM7.3155 11.9252H10.8592V22.5618H7.3155V11.9252Z" fill="#333333"/>
<path d="M3.18161 9.68154H26.8068C26.8107 9.68154 26.8151 9.68154 26.8184 9.68154C27.4717 9.68154 28 9.15244 28 8.49938C28 7.98025 27.6659 7.54026 27.2018 7.38087L15.4799 2.10377C15.1718 1.96541 14.8194 1.96541 14.5107 2.10377L2.69703 7.42182C2.18866 7.65095 1.9093 8.20328 2.02658 8.74787C2.1433 9.29246 2.62456 9.68154 3.18161 9.68154Z" fill="#333333"/>
</svg>
