<svg width="30" height="30" viewBox="0 0 30 30" fill="none" xmlns="http://www.w3.org/2000/svg">
<g clip-path="url(#clip0_1_384)">
<path d="M15 30C23.2843 30 30 23.2843 30 15C30 6.71573 23.2843 0 15 0C6.71573 0 0 6.71573 0 15C0 23.2843 6.71573 30 15 30Z" fill="#DC4E41"/>
<path d="M5.22233 15.6718C5.16912 18.2527 6.94673 20.7156 9.392 21.5188C11.6953 22.2926 14.5272 21.7137 16.0599 19.7412C17.1789 18.3591 17.4332 16.5165 17.3121 14.7951C15.3395 14.7774 13.367 14.7833 11.3974 14.7862C11.3942 15.4889 11.3974 16.189 11.4004 16.8917C12.5814 16.9243 13.7627 16.9093 14.9438 16.9331C14.6457 17.9548 13.9665 18.9056 12.9357 19.2746C10.9455 20.1517 8.40614 19.0059 7.77991 16.9181C7.024 14.9189 8.26148 12.5062 10.3046 11.9246C11.5715 11.4789 12.8766 11.9808 13.9606 12.6394C14.5098 12.1254 15.0238 11.5762 15.5286 11.0211C14.297 9.99061 12.7143 9.35876 11.0872 9.49754C7.89489 9.53551 5.10121 12.4827 5.22233 15.6718Z" fill="#DC4E41"/>
<path d="M21.151 13.0132C21.1451 13.6009 21.139 14.1916 21.136 14.779C20.5454 14.7849 19.9579 14.7878 19.3702 14.7908C19.3702 15.3785 19.3702 15.963 19.3702 16.5507C19.9579 16.5537 20.5486 16.5566 21.136 16.5628C21.1419 17.1505 21.1419 17.738 21.1478 18.3286C21.7326 18.3286 22.3203 18.3257 22.9078 18.3286C22.911 17.738 22.9136 17.1505 22.9198 16.5598C23.5073 16.5569 24.0979 16.554 24.6856 16.551C24.6856 15.9633 24.6856 15.3788 24.6856 14.7911C24.0982 14.7881 23.5075 14.7852 22.9198 14.7793C22.9166 14.1916 22.911 13.6009 22.9078 13.0135C22.3203 13.0132 21.7355 13.0132 21.151 13.0132Z" fill="#DC4E41"/>
<path d="M9.00377 15.1936C8.88264 12.0044 11.6761 9.05726 14.8684 9.01902C16.4955 8.88025 18.0784 9.51209 19.3098 10.5426C18.8047 11.098 18.2907 11.6469 17.7418 12.1608C16.6578 11.5023 15.3527 11.0004 14.0858 11.4461C12.0424 12.028 10.8049 14.4406 11.5611 16.4396C12.1873 18.5274 14.7267 19.6731 16.7169 18.7961C17.7474 18.4271 18.4268 17.4763 18.725 16.4546C17.5439 16.4311 16.3626 16.4458 15.1815 16.4131C15.1786 15.7104 15.1756 15.0104 15.1786 14.3077C17.1482 14.3048 19.1207 14.2989 21.0932 14.3165C21.2144 16.0383 20.9603 17.8808 19.8411 19.2627C18.3084 21.2352 15.4767 21.8141 13.1732 21.0403C10.7284 20.2373 8.95056 17.7744 9.00377 15.1936Z" fill="white"/>
</g>
<defs>
<clipPath id="clip0_1_384">
<rect width="30" height="30" fill="white"/>
</clipPath>
</defs>
</svg>
